<svg viewBox="0 0 45.9 45.9" xmlns="http://www.w3.org/2000/svg" aria-label="Logo PICTOS">
  <path d="m 23.09,5.42 c -9.4,0 -17.1,6.3 -17.1,14.1 0,7.8 0,0 0,0 v 0 17.7 c 0,2.1 1.7,3.9 3.9,3.9 h 1.6 c 2.1,0 3.9,-1.7 3.9,-3.9 v -5.3 c 2.3,1 4.9,1.5 7.7,1.5 9.4,0 17.1,-6.3 17.1,-14.1 0,-7.8 -7.7,-13.9 -17.1,-13.9 z m 0.3,20.5 c -6.4,0 -9.2,-6.4 -9.2,-6.4 0,0 2.8,-6.4 9.2,-6.4 6.4,0 9.2,6.4 9.2,6.4 0,0 -2.8,6.4 -9.2,6.4 z" fill="#8b5cf6"/>
  <path d="m 23.41,13.14 c -6.4,0 -9.2,6.4 -9.2,6.4 0,0 2.8,6.4 9.2,6.4 6.4,0 9.2,-6.4 9.2,-6.4 0,0 -2.8,-6.4 -9.2,-6.4 z" fill="#ffffff"/>
  <circle cx="23.39" cy="19.22" r="3.1" fill="#1a1033"/>
</svg>
